<?xml version="1.0" encoding="utf-8"?>
<!-- Generator: Adobe Illustrator 27.8.1, SVG Export Plug-In . SVG Version: 6.00 Build 0)  -->
<svg version="1.1" id="Layer_1" xmlns="http://www.w3.org/2000/svg" xmlns:xlink="http://www.w3.org/1999/xlink" x="0px" y="0px"
	 viewBox="0 0 102.5 64" style="enable-background:new 0 0 102.5 64;" xml:space="preserve">
<style type="text/css">
	.st0{fill:#FFFFFF;}
	.st1{fill:#221F1F;}
	.st2{fill:#F06022;}
	.st3{fill:#E91D25;}
	.st4{fill:#F59D1E;}
</style>
<g>
	<g>
		<path class="st0" d="M95.25,63.88H7.25c-3.87,0-7-3.13-7-7V7.12c0-3.87,3.13-7,7-7h88.01c3.87,0,7,3.13,7,7v49.75
			C102.25,60.74,99.12,63.88,95.25,63.88z"/>
	</g>
	<g transform="translate(1565.7 -1106.8)">
		<g transform="matrix(3.1437 0 0 3.1437 -4835.7 -1027.6)">
			<g transform="matrix(1.25 0 0 -1.25 1102.5 727.74)">
				<path class="st1" d="M-40.51,26.42c0,0.19,0.12,0.34,0.32,0.34c0.19,0,0.32-0.15,0.32-0.34c0-0.19-0.13-0.34-0.32-0.34
					C-40.39,26.08-40.51,26.23-40.51,26.42 M-39.65,26.42v0.53h-0.23v-0.13c-0.07,0.1-0.18,0.16-0.34,0.16
					c-0.3,0-0.53-0.23-0.53-0.56c0-0.33,0.23-0.56,0.53-0.56c0.15,0,0.26,0.06,0.34,0.16v-0.13h0.23V26.42z M-31.83,26.42
					c0,0.19,0.12,0.34,0.32,0.34c0.19,0,0.32-0.15,0.32-0.34c0-0.19-0.13-0.34-0.32-0.34C-31.7,26.08-31.83,26.23-31.83,26.42
					 M-30.96,26.42v0.96h-0.23v-0.56c-0.07,0.1-0.18,0.16-0.34,0.16c-0.3,0-0.53-0.23-0.53-0.56c0-0.33,0.23-0.56,0.53-0.56
					c0.15,0,0.26,0.06,0.34,0.16v-0.13h0.23V26.42z M-36.78,26.77c0.15,0,0.25-0.09,0.27-0.26h-0.55
					C-37.03,26.67-36.94,26.77-36.78,26.77 M-36.77,26.98c-0.31,0-0.53-0.23-0.53-0.56c0-0.34,0.23-0.56,0.55-0.56
					c0.16,0,0.31,0.04,0.44,0.15l-0.11,0.17c-0.09-0.07-0.2-0.11-0.31-0.11c-0.15,0-0.29,0.07-0.32,0.26h0.79c0,0.03,0,0.06,0,0.09
					C-36.27,26.75-36.47,26.98-36.77,26.98 M-33.98,26.42c0,0.19,0.12,0.34,0.32,0.34c0.19,0,0.32-0.15,0.32-0.34
					c0-0.19-0.13-0.34-0.32-0.34C-33.85,26.08-33.98,26.23-33.98,26.42 M-33.11,26.42v0.53h-0.23v-0.13
					c-0.07,0.1-0.18,0.16-0.34,0.16c-0.3,0-0.53-0.23-0.53-0.56c0-0.33,0.23-0.56,0.53-0.56c0.15,0,0.26,0.06,0.34,0.16v-0.13h0.23
					V26.42z M-35.28,26.42c0-0.32,0.22-0.56,0.57-0.56c0.16,0,0.27,0.04,0.38,0.13l-0.11,0.19c-0.09-0.06-0.18-0.1-0.28-0.1
					c-0.18,0-0.32,0.14-0.32,0.34c0,0.21,0.14,0.34,0.32,0.34c0.1,0,0.19-0.03,0.28-0.1l0.11,0.19c-0.12,0.09-0.22,0.13-0.38,0.13
					C-35.06,26.98-35.28,26.74-35.28,26.42 M-32.3,26.98c-0.13,0-0.22-0.06-0.28-0.16v0.13h-0.23v-1.06h0.23v0.6
					c0,0.18,0.08,0.27,0.23,0.27c0.05,0,0.1-0.01,0.14-0.03l0.07,0.22C-32.18,26.97-32.25,26.98-32.3,26.98 M-38.51,26.87
					c-0.11,0.07-0.26,0.11-0.43,0.11c-0.27,0-0.44-0.13-0.44-0.34c0-0.17,0.13-0.28,0.37-0.31l0.11-0.02
					c0.13-0.02,0.19-0.05,0.19-0.11c0-0.08-0.08-0.13-0.24-0.13c-0.16,0-0.28,0.05-0.35,0.11L-39.43,26
					c0.13-0.09,0.29-0.14,0.46-0.14c0.31,0,0.49,0.14,0.49,0.35c0,0.19-0.14,0.29-0.37,0.32l-0.11,0.02
					c-0.1,0.01-0.18,0.03-0.18,0.1c0,0.08,0.08,0.12,0.2,0.12c0.14,0,0.27-0.05,0.33-0.09L-38.51,26.87z M-35.52,26.98
					c-0.13,0-0.22-0.06-0.28-0.16v0.13h-0.23v-1.06h0.23v0.6c0,0.18,0.08,0.27,0.23,0.27c0.05,0,0.1-0.01,0.14-0.03l0.07,0.22
					C-35.4,26.97-35.47,26.98-35.52,26.98 M-37.49,26.95h-0.38v0.32h-0.23v-0.32h-0.22v-0.21h0.22v-0.49c0-0.25,0.1-0.39,0.37-0.39
					c0.1,0,0.22,0.03,0.29,0.08l-0.07,0.2c-0.07-0.04-0.14-0.06-0.21-0.06c-0.12,0-0.15,0.07-0.15,0.18v0.48h0.38V26.95z
					 M-40.96,25.89v0.67c0,0.25-0.16,0.42-0.42,0.42c-0.14,0-0.28-0.04-0.37-0.19c-0.07,0.12-0.19,0.19-0.35,0.19
					c-0.11,0-0.22-0.03-0.31-0.16v0.13h-0.23v-1.06h0.23v0.59c0,0.18,0.1,0.28,0.26,0.28c0.15,0,0.23-0.1,0.23-0.28v-0.59h0.23v0.59
					c0,0.18,0.11,0.28,0.26,0.28c0.16,0,0.23-0.1,0.23-0.28v-0.59H-40.96z"/>
			</g>
			<path class="st2" d="M1058.67,691.79h-4.39v-7.88h4.39V691.79z"/>
			<g transform="matrix(1.25 0 0 -1.25 1064.5 698.59)">
				<path class="st3" d="M-7.95,8.59c0,1.28,0.6,2.42,1.53,3.15c-0.68,0.54-1.54,0.86-2.48,0.86c-2.22,0-4.01-1.8-4.01-4.01
					s1.8-4.01,4.01-4.01c0.94,0,1.8,0.32,2.48,0.86C-7.35,6.17-7.95,7.31-7.95,8.59"/>
			</g>
			<g transform="matrix(1.25 0 0 -1.25 1103.8 698.59)">
				<path class="st4" d="M-31.37,8.59c0-2.22-1.8-4.01-4.01-4.01c-0.94,0-1.8,0.32-2.48,0.86c0.93,0.73,1.53,1.87,1.53,3.15
					s-0.6,2.42-1.53,3.15c0.68,0.54,1.54,0.86,2.48,0.86C-33.17,12.6-31.37,10.81-31.37,8.59"/>
			</g>
		</g>
	</g>
</g>
</svg>
