<?xml version="1.0" encoding="utf-8"?>
<!-- Generator: Adobe Illustrator 27.8.1, SVG Export Plug-In . SVG Version: 6.00 Build 0)  -->
<svg version="1.1" id="Layer_1" xmlns="http://www.w3.org/2000/svg" xmlns:xlink="http://www.w3.org/1999/xlink" x="0px" y="0px"
	 viewBox="0 0 102.5 64" style="enable-background:new 0 0 102.5 64;" xml:space="preserve">
<style type="text/css">
	.st0{fill:#FFFFFF;}
</style>
<g>
	<g>
		<path class="st0" d="M95.25,63.88H7.25c-3.87,0-7-3.13-7-7V7.12c0-3.87,3.13-7,7-7h88.01c3.87,0,7,3.13,7,7v49.75
			C102.25,60.74,99.12,63.88,95.25,63.88z"/>
	</g>
	<path id="XMLID_34_" d="M32.69,23.09c-0.69,0.81-1.78,1.45-2.88,1.36c-0.14-1.1,0.4-2.26,1.03-2.98c0.69-0.83,1.89-1.43,2.86-1.47
		C33.81,21.13,33.36,22.25,32.69,23.09 M33.68,24.66c-1.59-0.09-2.95,0.9-3.7,0.9c-0.77,0-1.92-0.86-3.18-0.83
		c-1.63,0.02-3.15,0.95-3.99,2.42c-1.71,2.95-0.45,7.31,1.21,9.71c0.81,1.19,1.78,2.49,3.06,2.45c1.21-0.05,1.69-0.79,3.15-0.79
		c1.47,0,1.9,0.79,3.18,0.77c1.33-0.02,2.16-1.19,2.97-2.38c0.93-1.35,1.3-2.66,1.33-2.73c-0.02-0.02-2.56-0.99-2.58-3.92
		c-0.02-2.45,2-3.61,2.09-3.68C36.08,24.89,34.3,24.71,33.68,24.66 M42.86,21.35v17.82h2.77v-6.09h3.83c3.5,0,5.95-2.4,5.95-5.87
		s-2.41-5.85-5.86-5.85L42.86,21.35L42.86,21.35z M45.62,23.68h3.19c2.4,0,3.77,1.28,3.77,3.53s-1.37,3.54-3.78,3.54h-3.18V23.68z
		 M60.46,39.3c1.74,0,3.35-0.88,4.08-2.27h0.06v2.14h2.56V30.3c0-2.57-2.06-4.23-5.22-4.23c-2.94,0-5.11,1.68-5.19,3.99h2.49
		c0.21-1.1,1.22-1.82,2.62-1.82c1.69,0,2.64,0.79,2.64,2.24v0.98l-3.45,0.21c-3.21,0.19-4.95,1.51-4.95,3.79
		C56.09,37.77,57.89,39.3,60.46,39.3z M61.2,37.19c-1.47,0-2.41-0.71-2.41-1.79c0-1.12,0.9-1.77,2.63-1.87l3.07-0.19v1.01
		C64.49,36,63.07,37.19,61.2,37.19z M70.57,44.01c2.7,0,3.97-1.03,5.07-4.15l4.86-13.62h-2.81l-3.26,10.53h-0.06l-3.26-10.53h-2.89
		l4.69,12.97L72.66,40c-0.42,1.34-1.11,1.85-2.33,1.85c-0.22,0-0.64-0.02-0.81-0.05v2.14C69.68,43.99,70.37,44.01,70.57,44.01z"/>
</g>
</svg>
