<?xml version="1.0" encoding="utf-8"?>
<!-- Generator: Adobe Illustrator 27.8.1, SVG Export Plug-In . SVG Version: 6.00 Build 0)  -->
<svg version="1.1" id="Layer_1" xmlns="http://www.w3.org/2000/svg" xmlns:xlink="http://www.w3.org/1999/xlink" x="0px" y="0px"
	 viewBox="0 0 102.5 64" style="enable-background:new 0 0 102.5 64;" xml:space="preserve">
<style type="text/css">
	.st0{fill:#FFFFFF;}
	.st1{clip-path:url(#SVGID_00000036230634055897254800000014580826359137377717_);}
	.st2{fill:url(#path10283_00000010992849720979367100000006101309046436991670_);}
</style>
<g>
	<g>
		<path class="st0" d="M95.25,63.88H7.25c-3.87,0-7-3.13-7-7V7.12c0-3.87,3.13-7,7-7h88.01c3.87,0,7,3.13,7,7v49.75
			C102.25,60.74,99.12,63.88,95.25,63.88z"/>
	</g>
	<g>
		<defs>
			<path id="SVGID_1_" d="M52.34,28.3c-0.04,2.86,2.55,4.46,4.5,5.41c2,0.97,2.67,1.6,2.67,2.47c-0.02,1.33-1.6,1.92-3.08,1.94
				c-2.58,0.04-4.08-0.7-5.28-1.25l-0.93,4.35c1.2,0.55,3.41,1.03,5.71,1.05c5.4,0,8.93-2.66,8.95-6.79
				c0.02-5.24-7.25-5.53-7.2-7.87c0.02-0.71,0.7-1.47,2.18-1.66c0.74-0.1,2.76-0.17,5.07,0.89l0.9-4.21
				c-1.24-0.45-2.83-0.88-4.81-0.88C55.94,21.73,52.37,24.43,52.34,28.3 M74.51,22.1c-0.99,0-1.82,0.57-2.19,1.46l-7.71,18.4h5.39
				l1.07-2.97h6.59l0.62,2.97h4.75L78.9,22.1H74.51 M75.26,27.46l1.56,7.46h-4.26L75.26,27.46 M45.8,22.1l-4.25,19.86h5.14
				l4.25-19.86H45.8 M38.2,22.1l-5.35,13.52l-2.16-11.49c-0.25-1.28-1.26-2.02-2.37-2.02h-8.74l-0.12,0.58
				c1.79,0.39,3.83,1.02,5.07,1.69c0.76,0.41,0.97,0.77,1.22,1.75l4.1,15.85h5.43L43.6,22.1L38.2,22.1"/>
		</defs>
		<clipPath id="SVGID_00000183969389574689697160000002630513484446434980_">
			<use xlink:href="#SVGID_1_"  style="overflow:visible;"/>
		</clipPath>
		<g id="g10269" style="clip-path:url(#SVGID_00000183969389574689697160000002630513484446434980_);">
			<g id="g10275" transform="translate(351.611,96.896)">
				
					<linearGradient id="path10283_00000072963217793025580370000013442894268689839517_" gradientUnits="userSpaceOnUse" x1="-873.8602" y1="474.8942" x2="-873.7325" y2="474.8942" gradientTransform="matrix(419.708 -154.5691 -154.5691 -419.708 439843.7188 64189.8047)">
					<stop  offset="0" style="stop-color:#212356"/>
					<stop  offset="1" style="stop-color:#284DA0"/>
				</linearGradient>
				<path id="path10283" style="fill:url(#path10283_00000072963217793025580370000013442894268689839517_);" d="M-338.81-72.71
					l62.65-23.07l14.25,38.7l-62.65,23.07"/>
			</g>
		</g>
	</g>
</g>
</svg>
